<?xml version="1.0" encoding="utf-8"?>
<!-- Generator: Adobe Illustrator 19.0.0, SVG Export Plug-In . SVG Version: 6.00 Build 0)  -->
<svg version="1.1" id="layer" xmlns="http://www.w3.org/2000/svg" xmlns:xlink="http://www.w3.org/1999/xlink" x="0px" y="0px"
	 viewBox="-153 -46 652 652" style="enable-background:new -153 -46 652 652;" xml:space="preserve">
<style type="text/css">
	.st0{fill:#0D97FF;}
	.st1{opacity:0.48;fill:#0D97FF;enable-background:new    ;}
</style>
<path class="st0" d="M-17,205.5c1.1-0.2,2.1-0.4,3.2-0.6C-14.8,205.1-15.9,205.3-17,205.5z"/>
<g id="SIMPLE_custom">
	<path class="st0" d="M115.9,270.2c13.5,3.3,20.6,8.1,20.6,18.8c0,12-9.4,19.2-22.8,19.2c-9.3,0.1-18.3-3.1-25.5-9.1
		c-0.7-0.6-0.7-1.6-0.2-2.2c0,0,0,0,0,0l4.8-5.6c0.6-0.7,1.6-0.8,2.2-0.2c0,0,0,0,0,0c5.7,4.7,11.5,7.3,19,7.3
		c6.9,0,11.3-3.2,11.3-8.1c0-4.7-2.6-7.1-14.4-9.9c-13.6-3.3-21.3-7.3-21.3-19.2c0-11.1,9.1-18.6,21.8-18.6c7.8-0.2,15.5,2.3,21.8,7
		c0.7,0.5,0.8,1.5,0.3,2.2l-4.2,5.9c-0.5,0.7-1.5,0.9-2.2,0.4c0,0,0,0,0,0c-4.6-3.5-10.3-5.5-16.1-5.6c-6.6,0-10.4,3.4-10.4,7.7
		C100.8,265.1,103.7,267.3,115.9,270.2z"/>
	<path class="st0" d="M172.5,244.9v60.7c0,0.9-0.7,1.6-1.6,1.6h-8.1c-0.9,0-1.6-0.7-1.6-1.6v-60.7c0-0.9,0.7-1.6,1.6-1.6h8.1
		C171.8,243.4,172.5,244.1,172.5,244.9z"/>
	<path class="st0" d="M227.8,286l-13.4-20c-0.5-0.7-1.5-0.9-2.2-0.4c-0.4,0.3-0.7,0.8-0.7,1.3v38.8c0,0.9-0.7,1.6-1.6,1.6H202
		c-0.9,0-1.6-0.7-1.6-1.6v-60.7c0-0.9,0.7-1.6,1.6-1.6h9.5c0.5,0,1,0.3,1.3,0.7l17.6,27.4c0.5,0.7,1.5,0.9,2.2,0.5
		c0.2-0.1,0.3-0.3,0.5-0.5l17.6-27.4c0.3-0.5,0.8-0.7,1.3-0.7h9.5c0.9,0,1.6,0.7,1.6,1.6v60.7c0,0.9-0.7,1.6-1.6,1.6h-8
		c-0.9,0-1.6-0.7-1.6-1.6v-39c0-0.9-0.8-1.6-1.6-1.5c-0.5,0-1,0.3-1.2,0.7L235.6,286c-0.3,0.4-0.8,0.7-1.3,0.7h-5.1
		C228.6,286.7,228.1,286.4,227.8,286z"/>
	<path class="st0" d="M314.5,286.7h-11.1c-0.9,0-1.6,0.7-1.6,1.6v17.4c0,0.9-0.7,1.6-1.6,1.6h-8c-0.9,0-1.6-0.7-1.6-1.6v-60.8
		c0-0.9,0.7-1.6,1.6-1.6h23.6c14.9,0,24.3,8.4,24.3,21.4C340.1,279.2,328.6,286.7,314.5,286.7z M314.9,253.6h-11.5
		c-0.9,0-1.6,0.7-1.6,1.6V275c0,0.9,0.7,1.6,1.6,1.6h11.5c8.5,0,13.8-4.7,13.8-11.5C328.7,257.5,323.3,253.6,314.9,253.6z"/>
	<path class="st0" d="M361.4,243.4h8c0.9,0,1.6,0.7,1.6,1.6v50.5c0,0.9,0.7,1.6,1.6,1.6H403c0.9,0,1.6,0.7,1.6,1.6v7.1
		c0,0.9-0.7,1.6-1.6,1.6h-41.6c-0.9,0-1.6-0.7-1.6-1.6v-60.7C359.8,244.1,360.5,243.4,361.4,243.4z"/>
	<path class="st0" d="M468.7,253.4h-33.4c-0.9,0-1.6,0.7-1.6,1.6v13.4c0,0.9,0.7,1.6,1.6,1.6h32.2c0.9,0,1.6,0.7,1.6,1.6v6.8
		c0,0.9-0.7,1.6-1.6,1.6h-32.2c-0.9,0-1.6,0.7-1.6,1.6v14c0,0.9,0.7,1.6,1.6,1.6h33.4c0.9,0,1.6,0.7,1.6,1.6v6.9
		c0,0.9-0.7,1.6-1.6,1.6H424c-0.9,0-1.6-0.7-1.6-1.6v-60.7c0-0.9,0.7-1.6,1.6-1.6h44.7c0.9,0,1.6,0.7,1.6,1.6v6.9
		C470.3,252.7,469.6,253.4,468.7,253.4z"/>
</g>
<path class="st1" d="M27.1,253.6c-3-10.5-9.5-19.7-18.4-26c-2.3-1.6-4.7-3.1-7.3-4.3c-0.4-0.2-0.8-0.6-1-1c-1.3-2.5-2.7-4.9-4.4-7.2
	c-6.5-8.8-15.7-15.1-26.3-18c-3.9-1-7.8-1.5-11.8-1.4c-6.9,0.1-13.6,1.6-19.9,4.4c-2.6,1.2-5.1,2.6-7.4,4.2
	c-0.3,0.2-0.7,0.3-1.1,0.3l0,0c-1.2-0.1-2.5-0.1-3.6-0.1c-1.6,0-3.3,0.1-4.9,0.3c-5.4,0.6-10.7,2.1-15.7,4.5
	c-4.9,2.3-9.3,5.5-13.1,9.3c-9.6,10-14.5,23.6-13.4,37.4c0,0.5-0.1,0.9-0.3,1.3c-1.6,2.4-2.9,4.8-4.1,7.4
	c-9.3,20.6-2.6,44.8,16,57.7c2.3,1.6,4.7,3.1,7.3,4.3c0.4,0.2,0.8,0.6,1,1c1.2,2.5,2.7,4.9,4.4,7.2c3.2,4.4,7.2,8.2,11.7,11.3
	c4.4,3.1,9.4,5.3,14.6,6.7c3.9,1,7.9,1.5,11.9,1.5c6.8-0.1,13.6-1.6,19.8-4.4c2.6-1.2,5.1-2.6,7.4-4.2c0.3-0.2,0.7-0.3,1.1-0.3
	c1.1,0,2.3,0.1,3.7,0.1c24.4,0,44.8-18.7,46.9-43c0.2-2.8,0.2-5.6,0-8.4c0-0.5,0.1-1,0.3-1.3c1.6-2.3,2.9-4.8,4.1-7.4
	c2.8-6.3,4.2-13.1,4.2-19.9C28.7,261.5,28.1,257.5,27.1,253.6z M-54.2,204.7c3.9-1.2,8-1.8,12-1.9c3.4,0,6.8,0.4,10,1.2
	c7.3,2,13.8,5.9,19,11.3c0.5,0.5,0.7,1.3,0.4,2c-0.3,0.7-1,1.1-1.7,1.1c-0.1,0-0.2,0-0.3,0c-1.8-0.3-3.5-0.4-5.3-0.5
	c-1.1,0-2.3-0.1-3.7,0c-3.9,0-7.7,0.4-11.5,1.1h-0.3c-0.4,0-0.8-0.2-1.2-0.4c-3.9-3.3-8.2-6.1-12.8-8.4c-1.6-0.8-3.2-1.5-4.9-2.1
	c-0.7-0.3-1.2-1-1.2-1.8C-55.4,205.6-54.9,204.9-54.2,204.7z M-78.7,223.9c2.8-4.3,6.2-8.1,10.1-11.3c0.3-0.3,0.8-0.4,1.2-0.4h0.3
	c5,0.8,9.9,2.3,14.5,4.5c1.3,0.6,2.7,1.4,4.2,2.3c0.6,0.4,1,1.1,0.9,1.8c-0.1,0.7-0.6,1.4-1.3,1.6c-1.8,0.6-3.6,1.1-5.3,1.7
	l-0.7,0.2c-3.7,1.2-6.3,2-9,2.8s-5.3,1.3-8.1,2l-1,0.2c-2,0.4-4.1,0.9-6.2,1.4c-0.1,0-0.3,0-0.4,0c-0.7,0-1.3-0.3-1.6-0.9
	c-0.3-0.6-0.3-1.3,0-1.8C-80.4,226.7-79.6,225.3-78.7,223.9z M-106.3,291.4c-0.8,5-1,10-0.7,15c0.1,1.6,0.3,3.4,0.6,5.3
	c0.1,0.6,0,1.1-0.4,1.6c-0.4,0.4-0.9,0.6-1.4,0.6c-0.5,0-0.9-0.2-1.3-0.5c-11.5-10.3-15.9-26.3-11.3-41c0.3-1,1.3-1.5,2.3-1.2
	c0.5,0.2,1,0.6,1.2,1.1c0.6,1.6,1.4,3.3,2.2,4.8c2.3,4.5,5.1,8.7,8.4,12.6C-106.4,290.2-106.2,290.8-106.3,291.4z M-101.2,271.6
	c-0.6,2-1.2,4-1.9,6.1c-0.2,0.8-0.9,1.3-1.8,1.3c-0.6,0-1.3-0.3-1.6-0.9c-0.9-1.4-1.7-2.7-2.4-4.2c-2.4-4.7-4-9.8-4.8-15
	c-0.6-3.6-0.7-7.2-0.4-10.7c0-0.7,0.1-1.4,0.3-2.1c2.2-16.3,14.3-29.6,30.3-33.3c0.1,0,0.3,0,0.4,0c0.7,0,1.3,0.4,1.6,1
	c0.3,0.6,0.2,1.4-0.2,2c-1,1.3-2.1,2.8-3.2,4.3c-2.8,4.4-5.2,9.1-6.9,14.1c-0.1,0.2-0.2,0.4-0.5,0.5c-4.5,1.7-8.8,3.8-12.8,6.3
	l-0.6,0.4l-0.5,0.3l-0.3,0.2l-0.1,0.1l-0.2,0.2l-0.1,0.1l-0.3,0.2c-0.1,0.1-0.2,0.2-0.2,0.4c0,0.2,0,0.3,0,0.5v0.5
	c0,0.4,0,0.7-0.1,1.1c-0.1,0.7-0.1,1.5-0.2,2.2c0,0.7,0,1.5,0,2.3c0,0.2,0,0.4,0,0.6c0,0.4,0.4,0.8,0.8,0.8c0.2,0,0.3-0.1,0.5-0.1
	c1-0.7,1.9-1.3,2.9-2l0.4-0.5c0.3-0.3,0.7-0.5,1-0.7l0.6-0.4c1.1-0.7,2.3-1.4,3.6-2.2c0.8-0.4,1.8-0.2,2.4,0.5
	c0.3,0.4,0.5,1,0.4,1.6c-0.4,1.8-0.8,3.6-1.2,5.3l-0.2,0.9c-0.6,3-1.3,6.1-2,9.2c-0.8,3-1.6,5.6-2.5,8.5L-101.2,271.6z M-94.2,322.4
	l-1.9-0.7l-0.2-0.1l-0.2-0.3c-2-4.9-3.1-10.1-3.5-15.3c-0.1-1.6-0.2-3.2-0.1-4.8c0-1,0.8-1.8,1.9-1.8c0.5,0,0.9,0.2,1.3,0.5
	c1.6,1.5,3.2,2.9,4.8,4.2l0.4,0.3c2.2,1.9,4.4,4,6.6,6.1c2.1,2.1,4.2,4.3,6.5,6.8c0.6,0.6,1.2,1.3,1.8,2l0.2,0.2c0.1,0,0.1,0,0.2,0
	c2.4,0,4.9-0.3,7.3-0.6c0.4-0.1,0.7-0.5,0.7-0.9c0-0.2-0.1-0.3-0.2-0.4c-1.6-1.6-3-3.2-4.8-5l-0.7-0.7c-1.9-2-3.9-4.2-6-6.2
	c-2.1-2-4.1-3.9-6.1-5.7l-1.1-1c-2.4-2.2-4.8-4.2-7.1-6.5c-1.1-1-2.1-2-3.2-3.1c-0.5-0.5-0.7-1.3-0.5-2c0.3-1.4,0.7-2.8,1.1-4.2
	c0.8-3.1,1.7-5.9,2.5-8.4l0.5-1.7c0.9-2.9,1.8-5.7,2.5-8.6c0.7-2.9,1.4-6.1,2.2-9.5l0.3-1.4c0.5-2.4,1.1-5.2,1.8-8
	c0.3-1.3,0.7-2.7,1.1-4.2c0.2-0.7,0.8-1.3,1.5-1.5c1.2-0.4,2.4-0.7,3.5-1l0.7-0.2c3.4-0.9,6.5-1.6,9.4-2.2l1.2-0.3
	c2.9-0.7,5.6-1.3,8.3-2c2.7-0.7,5.7-1.7,8.4-2.6l0.9-0.3c2.9-1,5.9-2,9.2-2.9c1.9-0.5,3.5-1,4.9-1.3c3.6-0.9,7.2-1.4,10.9-1.7
	c1.3-0.1,2.7-0.2,4-0.2c1.1,0,2.1,0,3.2,0c5.2,0.3,10.4,1.4,15.3,3.3c0.2,0.1,0.4,0.2,0.5,0.4c2,4.9,3.2,10.1,3.5,15.3
	c0.1,1.5,0.1,3.1,0.1,4.8c0,1-0.8,1.9-1.8,1.9c-0.5,0-1-0.2-1.3-0.5c-1.6-1.5-3.2-2.9-4.8-4.2l-0.8-0.7c-2.2-1.9-4.2-3.8-6.1-5.7
	s-3.9-4-5.9-6.2l-0.6-0.6l-1.3-1.4l-0.5-0.6c-0.1-0.1-0.3-0.2-0.5-0.2c-2.4,0.1-4.8,0.3-7.1,0.6c-0.4,0.1-0.7,0.5-0.7,0.9
	c0,0.2,0.1,0.3,0.2,0.4c1.4,1.4,2.7,2.9,4.2,4.5l1.2,1.3c1.9,2.1,3.9,4.2,6,6.3c2.1,2.1,4.6,4.4,6.9,6.4l1.1,1l0.9,0.8
	c1.8,1.6,3.6,3.2,5.4,5c1.1,1,2.3,2.2,3.5,3.6c0.2,0.2,0.3,0.5,0.2,0.7c-0.4,1.7-0.8,3.3-1.2,4.9c-0.9,3.2-1.8,6.2-2.6,9l-0.2,0.7
	c-1,3.1-1.9,6-2.6,9c-0.8,3-1.4,5.9-2.1,9.5l-0.4,1.8c-0.5,2.4-1.1,5-1.7,7.6c-0.3,1.5-0.8,3.1-1.3,4.9c-0.1,0.2-0.3,0.4-0.5,0.5
	c-1.8,0.6-3.4,1-4.8,1.4c-3.4,0.9-6.5,1.6-9.4,2.3l-0.5,0.1c-3,0.7-6,1.4-9.1,2.2c-3,0.8-6.1,1.8-9.1,2.8h-0.1l-1.5,0.5
	c-2.5,0.8-5.1,1.7-7.9,2.5h-0.2c-1.1,0.3-2.8,0.8-4.8,1.3c-3.6,0.8-7.2,1.4-10.8,1.7c-1.3,0.1-2.7,0.2-4,0.2c-1.1,0-2.2,0-3.2,0
	l-2-0.1l-1.8-0.2h-0.5l-1.2-0.2c-0.1,0-0.2,0-0.3,0c-0.5,0-1-0.2-1.4-0.3c-0.9-0.2-1.8-0.4-2.6-0.6
	C-91.5,323.3-92.9,322.8-94.2,322.4L-94.2,322.4z M-46.8,345.4c-3.9,1.2-8,1.8-12,1.9c-3.4,0-6.8-0.4-10.1-1.2
	c-7.3-2-13.8-5.9-19-11.3c-0.5-0.5-0.7-1.3-0.4-2c0.3-0.7,1-1.1,1.7-1.1h0.3c1.7,0.3,3.5,0.4,5.3,0.5c1.2,0,2.5,0.1,3.7,0
	c3.8-0.1,7.7-0.4,11.4-1.1h0.3c0.4,0,0.8,0.1,1.1,0.4c3.9,3.2,8.2,6,12.8,8.3c1.6,0.7,3.2,1.4,4.9,2.1c0.7,0.3,1.2,1,1.2,1.8
	C-45.5,344.4-46,345.1-46.8,345.4L-46.8,345.4z M-22.3,326.1c-2.8,4.3-6.2,8.1-10.1,11.3c-0.3,0.3-0.7,0.4-1.2,0.4h-0.3
	c-5.1-0.7-10-2.3-14.5-4.5c-1.5-0.7-2.9-1.6-4.2-2.3c-0.9-0.6-1.1-1.7-0.6-2.6c0.2-0.4,0.6-0.7,1-0.8c1.6-0.5,3.2-1,4.8-1.6l1.3-0.4
	c3.2-1,6-2,9-2.8c2.6-0.7,5.3-1.3,8.1-1.9l1.1-0.3c2-0.4,4-0.9,6.1-1.4c0.1,0,0.3,0,0.4,0c0.7,0,1.3,0.3,1.6,0.9
	c0.3,0.6,0.3,1.2,0,1.8C-20.6,323.4-21.4,324.8-22.3,326.1L-22.3,326.1z M13.1,301.9c0,0.7-0.1,1.4-0.3,2.1
	c-2.2,16.3-14.3,29.6-30.3,33.3c-0.1,0-0.3,0-0.4,0c-1,0-1.9-0.8-1.9-1.9c0-0.4,0.1-0.8,0.4-1.1c1.1-1.3,2.1-2.8,3.1-4.3
	c2.7-4.3,5-8.8,6.7-13.5c0.2-0.6,0.7-1,1.3-1.3c4.3-1.6,8.5-3.7,12.4-6.2l0.6-0.4l0.6-0.4l0.3-0.2l0.1-0.1l0.4-0.3l0.3-0.2
	c0,0,0.1-0.1,0.1-0.1l0,0c0-0.1,0.1-0.3,0.1-0.4c0.3-2.3,0.4-4.6,0.4-7c0-0.4-0.4-0.8-0.8-0.8c-0.2,0-0.3,0.1-0.5,0.1
	c-1.6,1.1-3,2.1-4.8,3.2c-1.2,0.8-2.6,1.7-4.1,2.5c-0.3,0.2-0.6,0.2-0.9,0.2c-0.6,0-1.1-0.2-1.5-0.7c-0.3-0.4-0.5-1-0.4-1.6
	c0.4-1.6,0.7-3.2,1-4.8l0.3-1.5c0.5-2.8,1.2-6,2-9.2c0.7-2.8,1.6-5.7,2.5-8.5l0.2-0.5c0.6-2,1.2-4,1.8-6.1c0.2-0.8,1-1.3,1.8-1.3
	c0.6,0,1.2,0.3,1.6,0.9c1,1.6,1.7,2.9,2.4,4.2c2.4,4.7,4.1,9.8,4.9,15C13.3,294.7,13.4,298.3,13.1,301.9z M19.9,277.7
	c-0.3,1-1.3,1.5-2.3,1.2c-0.5-0.2-1-0.6-1.2-1.1c-0.6-1.6-1.4-3.3-2.2-4.8c-2.3-4.5-5.1-8.7-8.4-12.6c-0.4-0.5-0.6-1.1-0.5-1.7
	c0.8-5,1.1-10,0.7-15c-0.2-1.9-0.3-3.7-0.6-5.3c-0.1-0.5,0.1-1.1,0.4-1.5c0.4-0.4,0.9-0.7,1.4-0.7c0.5,0,0.9,0.2,1.3,0.5
	C20,247.1,24.4,263,19.9,277.7z"/>
<path class="st0" d="M27.1,253.7c-3-10.5-9.6-19.7-18.5-26c-2.3-1.6-4.7-3.1-7.3-4.3c-0.4-0.2-0.8-0.6-1-1c-1.3-2.5-2.7-4.9-4.4-7.2
	c-6.5-8.8-15.7-15.1-26.3-18c-3.9-1-7.8-1.5-11.8-1.4c-6.9,0.1-13.6,1.6-19.9,4.4c-2.6,1.2-5.1,2.6-7.4,4.2
	c-0.3,0.2-0.7,0.3-1.1,0.3l0,0c-1.2-0.1-2.5-0.1-3.6-0.1c-1.6,0-3.3,0.1-4.9,0.3c-5.4,0.6-10.7,2.1-15.6,4.5
	c-4.9,2.3-9.3,5.5-13.1,9.3c-9.6,10-14.5,23.6-13.4,37.4c0,0.5-0.1,0.9-0.3,1.3c-1.6,2.4-2.9,4.8-4.1,7.4
	c-9.3,20.6-2.6,44.8,16,57.7c2.3,1.6,4.7,3.1,7.3,4.3c0.4,0.2,0.8,0.6,1,1c1.2,2.5,2.7,4.9,4.4,7.2c3.2,4.4,7.2,8.2,11.7,11.3
	c4.4,3.1,9.4,5.3,14.6,6.7c3.9,1,7.9,1.5,11.9,1.5c6.8-0.1,13.6-1.6,19.8-4.4c2.6-1.2,5.1-2.6,7.4-4.2c0.3-0.2,0.7-0.3,1.1-0.3
	c1.1,0,2.3,0.1,3.7,0.1c24.4,0,44.8-18.7,46.9-43c0.2-2.8,0.2-5.6,0-8.4c0-0.5,0.1-1,0.3-1.3c1.6-2.3,2.9-4.8,4.1-7.4
	c2.8-6.3,4.2-13.1,4.2-19.9C28.7,261.5,28.2,257.6,27.1,253.7z M-54.2,204.8c3.9-1.2,8-1.8,12-1.9c3.4,0,6.8,0.4,10,1.2
	c7.3,2,13.8,5.9,19,11.3c0.5,0.5,0.7,1.3,0.4,2c-0.3,0.7-1,1.1-1.7,1.1c-0.1,0-0.2,0-0.3,0c-1.8-0.3-3.5-0.4-5.3-0.5
	c-1.1,0-2.3-0.1-3.7,0c-3.9,0-7.7,0.4-11.5,1.1h-0.3c-0.4,0-0.8-0.2-1.2-0.4c-3.9-3.2-8.2-6-12.8-8.3c-1.6-0.8-3.2-1.5-4.9-2.1
	c-0.7-0.3-1.2-1-1.2-1.8C-55.5,205.8-54.9,205-54.2,204.8z M-78.7,224c2.8-4.3,6.2-8.1,10.1-11.3c0.3-0.3,0.8-0.4,1.2-0.4h0.3
	c5,0.8,9.9,2.3,14.5,4.5c1.3,0.6,2.7,1.4,4.2,2.3c0.6,0.4,1,1.1,0.9,1.8c-0.1,0.7-0.6,1.4-1.3,1.6c-1.8,0.6-3.6,1.1-5.3,1.7
	l-0.7,0.2c-3.7,1.2-6.3,2-9,2.8s-5.3,1.3-8.1,2l-1,0.2c-2,0.4-4.1,0.9-6.2,1.4c-0.1,0-0.3,0-0.4,0c-0.7,0-1.3-0.3-1.6-0.9
	c-0.3-0.6-0.3-1.3,0-1.8C-80.4,226.8-79.6,225.4-78.7,224z M-106.3,291.5c-0.8,5-1,10-0.7,15c0.1,1.6,0.3,3.4,0.6,5.3
	c0.1,0.6,0,1.1-0.4,1.6c-0.4,0.4-0.9,0.6-1.4,0.6c-0.5,0-0.9-0.2-1.3-0.5c-11.5-10.3-15.9-26.3-11.3-41c0.3-1,1.3-1.5,2.3-1.2
	c0.5,0.2,1,0.6,1.2,1.1c0.6,1.6,1.4,3.3,2.2,4.8c2.3,4.5,5.1,8.7,8.4,12.6C-106.4,290.3-106.2,290.9-106.3,291.5z M-101.2,271.7
	c-0.6,2-1.2,4-1.9,6.1c-0.2,0.8-0.9,1.3-1.8,1.3c-0.6,0-1.3-0.3-1.6-0.9c-0.9-1.4-1.7-2.7-2.4-4.2c-2.4-4.7-4-9.8-4.8-15
	c-0.6-3.5-0.8-7.2-0.5-10.7c0-0.7,0.1-1.4,0.3-2.1c2.2-16.3,14.3-29.6,30.3-33.3c0.1,0,0.3,0,0.4,0c0.7,0,1.3,0.4,1.6,1
	c0.3,0.6,0.2,1.4-0.2,2c-1,1.3-2.1,2.8-3.2,4.3c-2.8,4.4-5.2,9.1-6.9,14.1c-0.1,0.2-0.2,0.4-0.5,0.5c-4.5,1.7-8.8,3.8-12.8,6.3
	c-0.7,0.5-1.4,0.9-2.1,1.4c-0.4,0.2-0.6,0.7-0.5,1.2c0,0.5-0.1,1-0.1,1.5c0,0.5-0.1,1.5-0.1,2.2c0,0.7,0,1.6,0,2.3v0.6
	c0,0.4,0.4,0.8,0.8,0.8c0.2,0,0.3-0.1,0.5-0.1c1-0.7,1.9-1.3,2.9-2l0.6-0.4c0.3-0.3,0.7-0.5,1-0.7l0.6-0.4c1.1-0.7,2.3-1.4,3.6-2.2
	c0.8-0.4,1.8-0.2,2.4,0.5c0.3,0.4,0.5,1,0.4,1.6c-0.4,1.8-0.8,3.6-1.2,5.3l0,0.8c-0.6,3-1.3,6.1-2,9.2s-1.6,5.6-2.5,8.5
	L-101.2,271.7z M-94.2,322.5l-1.9-0.7l-0.2-0.1l-0.2-0.3c-2-4.9-3.1-10.1-3.5-15.3c-0.1-1.6-0.2-3.2-0.1-4.8c0-1,0.8-1.8,1.9-1.8
	c0.5,0,0.9,0.2,1.3,0.5c1.6,1.5,3.2,2.9,4.8,4.2l0.4,0.3c2.2,1.9,4.4,4,6.6,6.1c2.1,2.1,4.2,4.3,6.5,6.8c0.6,0.6,1.2,1.3,1.8,2
	l0.2,0.2c0.1,0,0.1,0,0.2,0c2.4,0,4.9-0.3,7.3-0.6c0.4-0.1,0.7-0.5,0.7-0.9c0-0.2-0.1-0.3-0.2-0.4c-1.6-1.6-3-3.2-4.8-5l-0.7-0.9
	c-1.9-2-3.9-4.2-6-6.2c-2.1-2-4.1-3.9-6.1-5.7l-1.1-1c-2.4-2.2-4.8-4.2-7.1-6.5c-1.1-1-2.1-2-3.2-3.1c-0.5-0.5-0.7-1.3-0.5-2
	c0.3-1.4,0.7-2.8,1.1-4.2c0.8-3.1,1.7-5.9,2.5-8.4l0.5-1.7c1-2.9,1.9-5.6,2.6-8.5c0.7-2.9,1.4-6.1,2.2-9.5l0.3-1.4
	c0.5-2.4,1.1-5.2,1.8-8c0.3-1.3,0.7-2.7,1.1-4.2c0.2-0.7,0.8-1.3,1.5-1.5c1.2-0.4,2.4-0.7,3.5-1l0.7-0.2c3.4-0.9,6.5-1.6,9.4-2.2
	l1.2-0.3c2.9-0.7,5.6-1.3,8.3-2c2.7-0.7,5.7-1.7,8.4-2.6l0.9-0.3c2.9-1,5.9-2,9.2-2.9c1.9-0.5,3.5-1,4.9-1.3
	c3.6-0.9,7.2-1.4,10.9-1.7c1.3-0.1,2.7-0.2,4-0.2c1.1,0,2.1,0,3.2,0c5.2,0.3,10.4,1.4,15.3,3.3c0.2,0.1,0.4,0.2,0.5,0.4
	c2,4.9,3.2,10.1,3.5,15.3c0.1,1.5,0.1,3.1,0.1,4.8c0,1-0.8,1.9-1.8,1.9c-0.5,0-1-0.2-1.3-0.5c-1.6-1.5-3.2-2.9-4.8-4.2l-0.8-0.7
	c-2.2-1.9-4.2-3.8-6.1-5.7c-1.9-1.9-3.9-4-5.9-6.2l-0.6-0.6l-1.3-1.4l-0.3-0.4c-0.1-0.1-0.3-0.2-0.5-0.2c-2.4,0.1-4.8,0.3-7.1,0.6
	c-0.4,0.1-0.7,0.5-0.7,0.9c0,0.2,0.1,0.3,0.2,0.4c1.4,1.4,2.7,2.9,4.2,4.5l1.2,1.3c1.9,2.1,3.9,4.2,6,6.3c2.1,2.1,4.6,4.4,6.9,6.4
	l1.1,1l0.9,0.8c1.8,1.6,3.6,3.2,5.4,5c1.1,1,2.3,2.2,3.5,3.6c0.2,0.2,0.3,0.5,0.2,0.7c-0.4,1.7-0.8,3.3-1.2,4.9
	c-0.9,3.2-1.8,6.2-2.6,9l-0.2,0.7c-1,3.1-1.9,6-2.6,9s-1.4,5.9-2.1,9.5l-0.4,1.8c-0.5,2.4-1.1,5-1.7,7.6c-0.3,1.5-0.8,3.1-1.3,4.9
	c-0.1,0.2-0.3,0.4-0.5,0.5c-1.8,0.6-3.4,1-4.8,1.4c-3.4,0.9-6.5,1.6-9.4,2.3L-30,314c-3,0.7-6,1.4-9.1,2.2c-3,0.8-6.1,1.8-9.1,2.8
	l-0.1,0.1l-1.5,0.5c-2.5,0.8-5.1,1.7-7.9,2.5h-0.2c-1.1,0.3-2.8,0.8-4.8,1.3c-3.6,0.8-7.2,1.4-10.8,1.7c-1.3,0.1-2.7,0.2-4,0.2
	s-2.2,0-3.2,0l-2-0.1l-1.8-0.2l-0.5-0.1l-1.5-0.4c-0.1,0-0.2,0-0.3,0c-0.5,0-1-0.2-1.4-0.3c-0.9-0.2-1.8-0.4-2.6-0.6
	C-91.7,323.3-92.9,322.9-94.2,322.5L-94.2,322.5z M-46.8,345.4c-3.9,1.2-8,1.8-12,1.9c-3.4,0-6.8-0.4-10.1-1.2
	c-7.3-2-13.8-5.9-19-11.3c-0.5-0.5-0.7-1.3-0.4-2c0.3-0.7,1-1.1,1.7-1.1h0.3c1.7,0.3,3.5,0.4,5.3,0.5c1.2,0,2.5,0.1,3.7,0.1
	c3.8-0.1,7.7-0.4,11.4-1.1h0.3c0.4,0,0.8,0.1,1.1,0.4c3.9,3.2,8.2,6,12.8,8.3c1.6,0.7,3.2,1.4,4.9,2.1c0.7,0.3,1.2,1,1.2,1.8
	C-45.5,344.5-46.1,345.2-46.8,345.4L-46.8,345.4z M-22.3,326.2c-2.8,4.3-6.2,8.1-10.1,11.3c-0.3,0.3-0.7,0.4-1.2,0.4h-0.3
	c-5.1-0.7-10-2.3-14.5-4.5c-1.5-0.7-2.9-1.6-4.2-2.3c-0.9-0.6-1.1-1.7-0.6-2.6c0.2-0.4,0.6-0.7,1-0.8c1.6-0.5,3.2-1,4.8-1.5l1.3-0.4
	c3.2-1,6-2,9-2.8c2.6-0.7,5.3-1.3,8.1-1.9l1.1-0.3c2-0.4,4-0.9,6.1-1.4c0.1,0,0.3,0,0.4,0c0.7,0,1.3,0.3,1.6,0.9
	c0.3,0.6,0.3,1.2,0,1.8C-20.6,323.5-21.4,324.9-22.3,326.2L-22.3,326.2z M6.5,307.3c0-0.1,0-0.3,0-0.4c0.3-2.3,0.4-4.6,0.4-7
	c0-0.4-0.4-0.8-0.8-0.8c-0.2,0-0.3,0.1-0.5,0.1c-1.6,1.1-3,2.1-4.8,3.2c-1.2,0.8-2.6,1.7-4.1,2.5c-0.3,0.2-0.6,0.2-0.9,0.2
	c-0.6,0-1.1-0.2-1.5-0.7c-0.3-0.4-0.5-1-0.4-1.6c0.4-1.6,0.7-3.2,1-4.8l0.3-1.5c0.5-2.8,1.2-6,2-9.2c0.7-2.8,1.6-5.7,2.5-8.5
	l0.2-0.5c0.6-2,1.2-4,1.8-6.1c0.2-0.8,1-1.3,1.8-1.3c0.6,0,1.2,0.3,1.6,0.9c1,1.6,1.7,2.9,2.4,4.2c2.4,4.7,4,9.8,4.8,15
	c0.6,3.6,0.7,7.2,0.4,10.7c0,0.7-0.1,1.4-0.3,2.1c-2.2,16.3-14.3,29.6-30.3,33.3c-0.1,0-0.3,0-0.4,0c-0.7,0-1.3-0.4-1.6-1
	c-0.3-0.6-0.3-1.4,0.2-2c1.1-1.3,2.1-2.8,3.2-4.3c2.7-4.3,5-8.8,6.7-13.5c0.2-0.6,0.7-1,1.3-1.3c4.3-1.6,8.5-3.7,12.4-6.2l1.9-1.3
	c0.2-0.1,0.4-0.2,0.5-0.4L6.5,307.3z M20,277.8c-0.3,1-1.3,1.5-2.3,1.2c-0.5-0.2-1-0.6-1.2-1.1c-0.6-1.6-1.4-3.3-2.2-4.8
	c-2.3-4.5-5.1-8.7-8.4-12.6c-0.4-0.5-0.6-1.1-0.5-1.7c0.8-5,1.1-10,0.7-15c-0.2-1.9-0.3-3.7-0.6-5.3c-0.1-0.5,0.1-1.1,0.4-1.5
	c0.4-0.4,0.9-0.7,1.4-0.7c0.5,0,0.9,0.2,1.3,0.5C20,247.2,24.4,263.1,20,277.8L20,277.8z"/>
<path class="st0" d="M-101.5,247.3l-0.4,0.3l-1.2,0.8c0.3-0.3,0.7-0.5,1-0.7L-101.5,247.3z"/>
</svg>
